# Tiled2Unity generated file. Do not modify by hand.
# Wavefront file for 'mayaTiles2_mesh_0002.obj'

# Vertices (Count = 112)
v -6 -2 0
v -7 -2 0
v -7 -1 0
v -6 -1 0
v -7 -2 0
v -8 -2 0
v -8 -1 0
v -7 -1 0
v -6 -3 0
v -7 -3 0
v -7 -2 0
v -6 -2 0
v -7 -3 0
v -8 -3 0
v -8 -2 0
v -7 -2 0
v -5 -5 0
v -6 -5 0
v -6 -4 0
v -5 -4 0
v -6 -5 0
v -7 -5 0
v -7 -4 0
v -6 -4 0
v -5 -6 0
v -6 -6 0
v -6 -5 0
v -5 -5 0
v -6 -6 0
v -7 -6 0
v -7 -5 0
v -6 -5 0
v 0 -9 0
v -1 -9 0
v -1 -8 0
v 0 -8 0
v -1 -9 0
v -2 -9 0
v -2 -8 0
v -1 -8 0
v -2 -9 0
v -3 -9 0
v -3 -8 0
v -2 -8 0
v -3 -9 0
v -4 -9 0
v -4 -8 0
v -3 -8 0
v -4 -9 0
v -5 -9 0
v -5 -8 0
v -4 -8 0
v -5 -9 0
v -6 -9 0
v -6 -8 0
v -5 -8 0
v -6 -9 0
v -7 -9 0
v -7 -8 0
v -6 -8 0
v -7 -9 0
v -8 -9 0
v -8 -8 0
v -7 -8 0
v -8 -9 0
v -9 -9 0
v -9 -8 0
v -8 -8 0
v -9 -9 0
v -10 -9 0
v -10 -8 0
v -9 -8 0
v 0 -10 0
v -1 -10 0
v -1 -9 0
v 0 -9 0
v -1 -10 0
v -2 -10 0
v -2 -9 0
v -1 -9 0
v -2 -10 0
v -3 -10 0
v -3 -9 0
v -2 -9 0
v -3 -10 0
v -4 -10 0
v -4 -9 0
v -3 -9 0
v -4 -10 0
v -5 -10 0
v -5 -9 0
v -4 -9 0
v -5 -10 0
v -6 -10 0
v -6 -9 0
v -5 -9 0
v -6 -10 0
v -7 -10 0
v -7 -9 0
v -6 -9 0
v -7 -10 0
v -8 -10 0
v -8 -9 0
v -7 -9 0
v -8 -10 0
v -9 -10 0
v -9 -9 0
v -8 -9 0
v -9 -10 0
v -10 -10 0
v -10 -9 0
v -9 -9 0

# Texture cooridinates (Count = 52)
vt 0.0640625 0.8020833
vt 0.0890625 0.8020833
vt 0.0890625 0.8298611
vt 0.0640625 0.8298611
vt 0.09375 0.8020833
vt 0.11875 0.8020833
vt 0.11875 0.8298611
vt 0.09375 0.8298611
vt 0.0640625 0.7690972
vt 0.0890625 0.7690972
vt 0.0890625 0.796875
vt 0.0640625 0.796875
vt 0.09375 0.7690972
vt 0.11875 0.7690972
vt 0.11875 0.796875
vt 0.09375 0.796875
vt 0.0046875 0.8680556
vt 0.0296875 0.8680556
vt 0.0296875 0.8958333
vt 0.0046875 0.8958333
vt 0.034375 0.8680556
vt 0.059375 0.8680556
vt 0.059375 0.8958333
vt 0.034375 0.8958333
vt 0.0046875 0.8350694
vt 0.0296875 0.8350694
vt 0.0296875 0.8628472
vt 0.0046875 0.8628472
vt 0.034375 0.8350694
vt 0.059375 0.8350694
vt 0.059375 0.8628472
vt 0.034375 0.8628472
vt 0.034375 0.9340278
vt 0.059375 0.9340278
vt 0.059375 0.9618056
vt 0.034375 0.9618056
vt 0.0640625 0.9340278
vt 0.0890625 0.9340278
vt 0.0890625 0.9618056
vt 0.0640625 0.9618056
vt 0.1234375 0.8680556
vt 0.1484375 0.8680556
vt 0.1484375 0.8958333
vt 0.1234375 0.8958333
vt 0.0046875 0.9340278
vt 0.0296875 0.9340278
vt 0.0296875 0.9618056
vt 0.0046875 0.9618056
vt 0.09375 0.8680556
vt 0.11875 0.8680556
vt 0.11875 0.8958333
vt 0.09375 0.8958333

# Normal
vn 0 0 -1

# Mesh description
g mayaTiles2_mesh_0002

# Faces
f 1/1/1 2/2/1 3/3/1 4/4/1
f 5/5/1 6/6/1 7/7/1 8/8/1
f 9/9/1 10/10/1 11/11/1 12/12/1
f 13/13/1 14/14/1 15/15/1 16/16/1
f 17/17/1 18/18/1 19/19/1 20/20/1
f 21/21/1 22/22/1 23/23/1 24/24/1
f 25/25/1 26/26/1 27/27/1 28/28/1
f 29/29/1 30/30/1 31/31/1 32/32/1
f 33/33/1 34/34/1 35/35/1 36/36/1
f 37/37/1 38/38/1 39/39/1 40/40/1
f 41/37/1 42/38/1 43/39/1 44/40/1
f 45/41/1 46/42/1 47/43/1 48/44/1
f 49/41/1 50/42/1 51/43/1 52/44/1
f 53/45/1 54/46/1 55/47/1 56/48/1
f 57/37/1 58/38/1 59/39/1 60/40/1
f 61/37/1 62/38/1 63/39/1 64/40/1
f 65/33/1 66/34/1 67/35/1 68/36/1
f 69/37/1 70/38/1 71/39/1 72/40/1
f 73/49/1 74/50/1 75/51/1 76/52/1
f 77/41/1 78/42/1 79/43/1 80/44/1
f 81/49/1 82/50/1 83/51/1 84/52/1
f 85/41/1 86/42/1 87/43/1 88/44/1
f 89/41/1 90/42/1 91/43/1 92/44/1
f 93/41/1 94/42/1 95/43/1 96/44/1
f 97/41/1 98/42/1 99/43/1 100/44/1
f 101/41/1 102/42/1 103/43/1 104/44/1
f 105/41/1 106/42/1 107/43/1 108/44/1
f 109/49/1 110/50/1 111/51/1 112/52/1

